<svg xmlns="http://www.w3.org/2000/svg" width="26" height="31.969" viewBox="0 0 26 31.969">
  <metadata><?xpacket begin="﻿" id="W5M0MpCehiHzreSzNTczkc9d"?>
<x:xmpmeta xmlns:x="adobe:ns:meta/" x:xmptk="Adobe XMP Core 5.6-c138 79.159824, 2016/09/14-01:09:01        ">
   <rdf:RDF xmlns:rdf="http://www.w3.org/1999/02/22-rdf-syntax-ns#">
      <rdf:Description rdf:about=""/>
   </rdf:RDF>
</x:xmpmeta>
                                                                                                    
                                                                                                    
                                                                                                    
                                                                                                    
                                                                                                    
                                                                                                    
                                                                                                    
                                                                                                    
                                                                                                    
                                                                                                    
                                                                                                    
                                                                                                    
                                                                                                    
                                                                                                    
                                                                                                    
                                                                                                    
                                                                                                    
                                                                                                    
                                                                                                    
                                                                                                    
                           
<?xpacket end="w"?></metadata>
<defs>
    <style>
      .cls-1 {
        fill: #d8d8d8;
        fill-rule: evenodd;
      }
    </style>
  </defs>
  <path id="Home" class="cls-1" d="M13,3.743l10,10V29H18V22a2,2,0,0,0-2-2H10a2,2,0,0,0-2,2v7H3V13.743l10-10m0.884-3.359a1.25,1.25,0,0,0-1.768,0L0.586,11.914A2,2,0,0,0,0,13.329V30a2,2,0,0,0,2,2H9a2,2,0,0,0,2-2V23h4v7a2,2,0,0,0,2,2h7a2,2,0,0,0,2-2V13.329a2,2,0,0,0-.586-1.415Z" transform="translate(0 -0.031)"/>
</svg>
